<mxfile host="app.diagrams.net" modified="2023-04-08T07:37:33.217Z" agent="Mozilla/5.0 (Windows NT 10.0; Win64; x64) AppleWebKit/537.36 (KHTML, like Gecko) Chrome/112.0.0.0 Safari/537.36" version="21.1.5" etag="MRfhQnjEK8TaABrtzaoH" type="github">
  <diagram id="oDXFzr3DkrRtVXSyPDan" name="Page-1">
    <mxGraphModel dx="882" dy="596" grid="1" gridSize="10" guides="1" tooltips="1" connect="1" arrows="1" fold="1" page="1" pageScale="1" pageWidth="850" pageHeight="1100" math="0" shadow="0">
      <root>
        <mxCell id="0" />
        <mxCell id="1" parent="0" />
        <mxCell id="2" value="" style="sketch=0;pointerEvents=1;shadow=0;dashed=0;html=1;strokeColor=#9673a6;fillColor=#e1d5e7;aspect=fixed;labelPosition=center;verticalLabelPosition=bottom;verticalAlign=top;align=center;outlineConnect=0;shape=mxgraph.vvd.site;" parent="1" vertex="1">
          <mxGeometry x="200" y="280" width="159.09" height="140" as="geometry" />
        </mxCell>
        <mxCell id="3" value="" style="sketch=0;pointerEvents=1;shadow=0;dashed=0;html=1;strokeColor=none;fillColor=#434445;aspect=fixed;labelPosition=center;verticalLabelPosition=bottom;verticalAlign=top;align=center;outlineConnect=0;shape=mxgraph.vvd.tenant_key;" parent="1" vertex="1">
          <mxGeometry x="390" y="80" width="60" height="117.65" as="geometry" />
        </mxCell>
      </root>
    </mxGraphModel>
  </diagram>
</mxfile>
